<svg width="53" height="40" viewBox="0 0 53 40" fill="none" xmlns="http://www.w3.org/2000/svg">
<path fill-rule="evenodd" clip-rule="evenodd" d="M0.843589 1.91467C1.06135 1.39706 1.42996 0.954707 1.90281 0.643539C2.37566 0.332372 2.93151 0.166363 3.50009 0.166504H32.2501C34.8929 0.166504 37.5099 0.679508 39.9516 1.67623C42.3933 2.67294 44.6118 4.13386 46.4806 5.97555C48.3494 7.81725 49.8318 10.0037 50.8432 12.4099C51.8545 14.8162 52.3751 17.3953 52.3751 19.9998C52.3751 22.6044 51.8545 25.1834 50.8432 27.5897C49.8318 29.996 48.3494 32.1824 46.4806 34.0241C44.6118 35.8658 42.3933 37.3267 39.9516 38.3234C37.5099 39.3202 34.8929 39.8332 32.2501 39.8332H6.37509C5.61259 39.8332 4.88132 39.5347 4.34216 39.0033C3.80299 38.472 3.50009 37.7513 3.50009 36.9998C3.50009 36.2484 3.80299 35.5277 4.34216 34.9964C4.88132 34.465 5.61259 34.1665 6.37509 34.1665H32.2501C36.0626 34.1665 39.7189 32.6739 42.4148 30.0172C45.1106 27.3604 46.6251 23.7571 46.6251 19.9998C46.6251 16.2426 45.1106 12.6393 42.4148 9.98249C39.7189 7.32573 36.0626 5.83317 32.2501 5.83317H10.4403L15.5952 10.9133C16.1189 11.4477 16.4087 12.1634 16.4022 12.9063C16.3956 13.6492 16.0932 14.3598 15.5602 14.8852C15.0271 15.4105 14.3061 15.7085 13.5522 15.7149C12.7984 15.7214 12.0722 15.4358 11.53 14.9197L1.46746 5.003C1.06516 4.60678 0.791144 4.10185 0.680091 3.55212C0.569039 3.00238 0.625938 2.43253 0.843589 1.91467Z" fill="white"/>
</svg>
