<svg width="92" height="91" viewBox="0 0 92 91" fill="none" xmlns="http://www.w3.org/2000/svg">
<path fill-rule="evenodd" clip-rule="evenodd" d="M65.9327 38.6753L44.466 59.9087C43.6993 60.667 42.9327 61.0462 41.7827 61.0462C40.6327 61.0462 39.866 60.667 39.0993 59.9087L26.066 47.017C24.5327 45.5003 24.5327 43.2253 26.066 41.7087C27.5993 40.192 29.8993 40.192 31.4327 41.7087L41.7827 51.9462L60.566 33.367C62.0993 31.8503 64.3993 31.8503 65.9327 33.367C67.466 34.8837 67.466 37.1587 65.9327 38.6753" fill="#3378FF"/>
<path d="M46.0007 11.3753C65.1673 11.3753 80.5007 26.542 80.5007 45.5003C80.5007 64.4587 65.1673 79.6253 46.0007 79.6253C26.834 79.6253 11.5007 64.4587 11.5007 45.5003C11.5007 26.542 26.834 11.3753 46.0007 11.3753ZM46.0007 3.79199C22.6173 3.79199 3.83398 22.3712 3.83398 45.5003C3.83398 68.6295 22.6173 87.2087 46.0007 87.2087C69.384 87.2087 88.1673 68.6295 88.1673 45.5003C88.1673 22.3712 69.384 3.79199 46.0007 3.79199Z" fill="#3378FF"/>
</svg>
