<svg width="31" height="30" viewBox="0 0 31 30" fill="none" xmlns="http://www.w3.org/2000/svg">
<path fill-rule="evenodd" clip-rule="evenodd" d="M11.1406 25.125C10.695 25.125 10.2494 24.9563 9.90061 24.6375C9.57525 24.3213 9.39258 23.8932 9.39258 23.4469C9.39258 23.0006 9.57525 22.5725 9.90061 22.2563L17.3987 15L9.90061 7.76254C9.57525 7.44629 9.39258 7.01819 9.39258 6.57192C9.39258 6.12565 9.57525 5.69755 9.90061 5.38129C10.2274 5.06642 10.6698 4.88965 11.1309 4.88965C11.5921 4.88965 12.0344 5.06642 12.3612 5.38129L21.08 13.8188C21.4053 14.135 21.588 14.5631 21.588 15.0094C21.588 15.4557 21.4053 15.8838 21.08 16.2L12.3612 24.6375C12.0319 24.9563 11.5862 25.125 11.1406 25.125Z" fill="white"/>
</svg>
