<svg width="30" height="30" viewBox="0 0 30 30" fill="none" xmlns="http://www.w3.org/2000/svg">
<path d="M0 5.41667C0 3.98008 0.570683 2.60233 1.5865 1.5865C2.60233 0.570683 3.98008 0 5.41667 0H24.5833C26.0199 0 27.3977 0.570683 28.4135 1.5865C29.4293 2.60233 30 3.98008 30 5.41667V24.5833C30 26.0199 29.4293 27.3977 28.4135 28.4135C27.3977 29.4293 26.0199 30 24.5833 30H5.41667C3.98008 30 2.60233 29.4293 1.5865 28.4135C0.570683 27.3977 0 26.0199 0 24.5833V5.41667ZM5.41667 3.33333C4.26667 3.33333 3.33333 4.26667 3.33333 5.41667V24.5833C3.33333 25.7333 4.26667 26.6667 5.41667 26.6667H24.5833C25.7333 26.6667 26.6667 25.7333 26.6667 24.5833V5.41667C26.6667 4.26667 25.7333 3.33333 24.5833 3.33333H5.41667Z" fill="#64C800"/>
</svg>
