<svg width="32" height="32" viewBox="0 0 32 32" fill="none" xmlns="http://www.w3.org/2000/svg">
<g filter="url(#filter0_d_701_1568)">
<rect x="4" width="24" height="24" rx="12" fill="white"/>
<path fill-rule="evenodd" clip-rule="evenodd" d="M7.8675 10.7998H21.9035L16.4525 5.3488C15.9835 4.8798 15.9835 4.1198 16.4525 3.6518C16.9215 3.1828 17.6805 3.1828 18.1495 3.6518L25.6495 11.1518C25.6525 11.1538 25.6535 11.1578 25.6565 11.1608C25.7635 11.2698 25.8495 11.3988 25.9085 11.5408C26.0305 11.8348 26.0305 12.1648 25.9085 12.4588C25.8495 12.6018 25.7635 12.7298 25.6565 12.8388C25.6535 12.8418 25.6525 12.8458 25.6495 12.8488L18.1495 20.3488C17.9155 20.5828 17.6085 20.6998 17.3015 20.6998C16.9935 20.6998 16.6865 20.5828 16.4525 20.3488C15.9835 19.8798 15.9835 19.1198 16.4525 18.6518L21.9035 13.1998H7.8675C7.2045 13.1998 6.6675 12.6628 6.6675 11.9998C6.6675 11.3378 7.2045 10.7998 7.8675 10.7998Z" fill="#868686"/>
</g>
<defs>
<filter id="filter0_d_701_1568" x="0" y="0" width="32" height="32" filterUnits="userSpaceOnUse" color-interpolation-filters="sRGB">
<feFlood flood-opacity="0" result="BackgroundImageFix"/>
<feColorMatrix in="SourceAlpha" type="matrix" values="0 0 0 0 0 0 0 0 0 0 0 0 0 0 0 0 0 0 127 0" result="hardAlpha"/>
<feOffset dy="4"/>
<feGaussianBlur stdDeviation="2"/>
<feComposite in2="hardAlpha" operator="out"/>
<feColorMatrix type="matrix" values="0 0 0 0 0 0 0 0 0 0 0 0 0 0 0 0 0 0 0.25 0"/>
<feBlend mode="normal" in2="BackgroundImageFix" result="effect1_dropShadow_701_1568"/>
<feBlend mode="normal" in="SourceGraphic" in2="effect1_dropShadow_701_1568" result="shape"/>
</filter>
</defs>
</svg>
