<svg width="18" height="16" viewBox="0 0 18 16" fill="none" xmlns="http://www.w3.org/2000/svg">
<path fill-rule="evenodd" clip-rule="evenodd" d="M15.2381 7.20007H9.98809V2.5334C9.98809 2.32123 9.89326 2.11774 9.72448 1.96771C9.5557 1.81768 9.32678 1.7334 9.08809 1.7334C8.84939 1.7334 8.62047 1.81768 8.45169 1.96771C8.28291 2.11774 8.18809 2.32123 8.18809 2.5334V7.20007H2.93809C2.69939 7.20007 2.47047 7.28435 2.30169 7.43438C2.13291 7.58441 2.03809 7.78789 2.03809 8.00006C2.03809 8.21224 2.13291 8.41572 2.30169 8.56575C2.47047 8.71578 2.69939 8.80007 2.93809 8.80007H8.18809V13.4667C8.18809 13.6789 8.28291 13.8824 8.45169 14.0324C8.62047 14.1824 8.84939 14.2667 9.08809 14.2667C9.32678 14.2667 9.5557 14.1824 9.72448 14.0324C9.89326 13.8824 9.98809 13.6789 9.98809 13.4667V8.80007H15.2381C15.4768 8.80007 15.7057 8.71578 15.8745 8.56575C16.0433 8.41572 16.1381 8.21224 16.1381 8.00006C16.1381 7.78789 16.0433 7.58441 15.8745 7.43438C15.7057 7.28435 15.4768 7.20007 15.2381 7.20007Z" fill="#0055FF"/>
</svg>
