<svg width="24" height="24" viewBox="0 0 24 24" fill="none" xmlns="http://www.w3.org/2000/svg">
<path fill-rule="evenodd" clip-rule="evenodd" d="M20.9668 12.362C20.6533 12.3074 20.331 12.3796 20.0707 12.5626C19.8104 12.7456 19.6335 13.0246 19.5788 13.338C19.2675 15.1268 18.3339 16.748 16.943 17.915C15.5521 19.0821 13.7935 19.72 11.9778 19.716C7.72379 19.716 4.26279 16.255 4.26279 12C4.26279 7.74602 7.72379 4.28502 11.9778 4.28502C13.9118 4.28502 15.7308 4.99902 17.1528 6.28902L16.1608 7.28102C16.031 7.4103 15.9396 7.57306 15.8969 7.75117C15.8541 7.92929 15.8616 8.11579 15.9185 8.28991C15.9754 8.46404 16.0794 8.61896 16.2192 8.73744C16.3589 8.85592 16.5287 8.93332 16.7098 8.96102L20.9218 9.61102C21.0757 9.63474 21.233 9.62183 21.3809 9.57335C21.5289 9.52487 21.6633 9.44218 21.7733 9.33199C21.8833 9.2218 21.9657 9.08723 22.0139 8.9392C22.0622 8.79117 22.0748 8.63385 22.0508 8.48002L21.4018 4.26902C21.3739 4.08806 21.2964 3.91837 21.178 3.77876C21.0595 3.63915 20.9047 3.5351 20.7307 3.47813C20.5567 3.42116 20.3703 3.41352 20.1922 3.45604C20.0141 3.49856 19.8513 3.58959 19.7218 3.71902L18.8498 4.59202C16.9861 2.84963 14.5291 1.8818 11.9778 1.88502C6.40079 1.88502 1.86279 6.42302 1.86279 12C1.86279 17.578 6.40079 22.115 11.9778 22.115C16.9058 22.115 21.0958 18.597 21.9428 13.75C21.9974 13.4365 21.9252 13.1142 21.7422 12.8539C21.5592 12.5936 21.2803 12.4167 20.9668 12.362" fill="black"/>
</svg>
