<svg width="35" height="33" viewBox="0 0 35 33" fill="none" xmlns="http://www.w3.org/2000/svg">
<path d="M31.8631 27.7076L25.1446 21.373C26.7269 19.3958 27.6763 16.9455 27.6763 14.2835C27.6763 7.77151 22.0558 2.47363 15.1506 2.47363C8.24396 2.47501 2.625 7.77288 2.625 14.2849C2.625 20.7955 8.24396 26.0948 15.1506 26.0948C17.9725 26.0948 20.5727 25.1996 22.6698 23.7078L29.3883 30.0424C29.7296 30.3641 30.1773 30.525 30.625 30.525C31.0727 30.525 31.5204 30.3641 31.8631 30.041C32.5456 29.3975 32.5456 28.3525 31.8631 27.7076ZM6.125 14.2849C6.125 9.59201 10.1733 5.77501 15.1506 5.77501C20.1265 5.77501 24.1748 9.59201 24.1748 14.2835C24.1748 18.975 20.1265 22.792 15.1506 22.792C10.1733 22.7934 6.125 18.9764 6.125 14.2849V14.2849Z" fill="#B9BCC0"/>
</svg>
