<svg width="90" height="90" viewBox="0 0 90 90" fill="none" xmlns="http://www.w3.org/2000/svg">
<g clip-path="url(#clip0_2_53)">
<path d="M90 58.6406L88.7344 55.125C87.75 55.5469 86.625 54.9844 86.3438 54C85.9219 53.0156 86.4844 51.8906 87.4688 51.6094L86.0625 47.8125C85.0781 48.2344 83.9531 47.6719 83.6719 46.6875C83.25 45.7031 83.8125 44.5781 84.7969 44.2969L83.5313 40.7813C82.5469 41.2031 81.4219 40.6406 81.1406 39.6563C80.7188 38.6719 81.2812 37.5469 82.2656 37.2656L81 33.75C80.0156 34.0313 79.0313 33.6094 78.6094 32.7656C74.8125 33.1875 71.0156 31.0781 69.75 27.2812L17.1562 46.125C18.7031 50.4844 16.4531 55.2656 12.0938 56.9531L22.3594 84.9375C26.7187 83.3906 31.5 85.6406 33.1875 90L85.6406 70.875C84.2344 67.0781 85.7812 63 89.0156 60.8906C88.5937 60.0469 89.0156 58.9219 90 58.6406Z" fill="#FBBF67"/>
<path d="M79.5938 65.6719L34.3125 82.125C31.9219 82.9687 29.25 81.7031 28.2656 79.3125L20.25 57.2344C19.4063 54.8437 20.6719 52.1719 23.0625 51.1875L68.3438 34.7344C70.7344 33.8906 73.4063 35.1562 74.3906 37.5469L82.4063 59.625C83.25 62.1562 81.9844 64.8281 79.5938 65.6719ZM23.9063 53.5781C22.6406 54 22.0781 55.4062 22.5 56.5312L30.5156 78.6094C30.9375 79.875 32.3438 80.4375 33.4688 80.0156L78.75 63.5625C80.0156 63.1406 80.5781 61.7344 80.1563 60.6094L72.1406 38.5312C71.7188 37.2656 70.3125 36.7031 69.1875 37.125L23.9063 53.5781Z" fill="#FF5555"/>
<path d="M43.4531 60.6094L42.1875 61.0313C42.0469 61.0313 41.9062 61.0312 41.9062 60.8906L41.2031 59.4844L40.3594 59.7656L40.7812 61.3125C40.7812 61.4531 40.7812 61.5937 40.6406 61.5937L39.375 62.0156C39.2344 62.0156 39.2344 62.0156 39.0937 61.875L36.7031 52.1719C36.7031 52.0312 36.7031 51.8906 36.8438 51.8906L38.6719 51.1875C38.8125 51.1875 38.9531 51.1875 38.9531 51.3281L43.4531 60.3281C43.5937 60.4688 43.5937 60.6094 43.4531 60.6094ZM40.5 57.9375L38.8125 54.2812H38.6719L39.7969 58.0781L40.5 57.9375ZM46.125 52.1719L47.8125 56.9531C48.0937 57.9375 47.6719 58.9219 46.6875 59.3438L44.5781 60.0469C44.4375 60.0469 44.2969 60.0469 44.2969 59.9062L41.4844 52.0312C41.4844 51.8906 41.4844 51.75 41.625 51.75L43.7344 51.0469C44.7188 50.7656 45.8437 51.1875 46.125 52.1719ZM44.5781 52.875C44.5781 52.7344 44.2969 52.5938 44.1562 52.5938L43.5937 52.7344L45.5625 58.0781L45.9844 57.9375C46.125 57.9375 46.2656 57.6563 46.125 57.5156L44.5781 52.875ZM52.0312 48.2344L54.9844 56.1094C54.9844 56.25 54.9844 56.3906 54.8438 56.3906L53.5781 56.8125C53.4375 56.8125 53.2969 56.8125 53.2969 56.6719L51.8906 53.0156L52.1719 56.6719C52.1719 56.8125 52.0312 56.8125 52.0312 56.6719L49.9219 53.7188L51.3281 57.375C51.3281 57.5156 51.3281 57.6562 51.1875 57.6562L49.9219 58.0781C49.7812 58.0781 49.6406 58.0781 49.6406 57.9375L46.6875 50.0625C46.6875 49.9219 46.6875 49.7813 46.8281 49.7813L47.9531 49.3594C48.0937 49.3594 48.2344 49.3594 48.2344 49.5L50.9063 53.4375L50.4844 48.7969C50.4844 48.6562 50.4844 48.5156 50.625 48.5156L51.75 48.0938C51.8906 48.0938 52.0312 48.0937 52.0312 48.2344ZM57.7969 55.125C57.7969 55.2656 57.7969 55.4063 57.6562 55.4063L56.3906 55.8281C56.25 55.8281 56.1094 55.8281 56.1094 55.6875L53.2969 47.8125C53.2969 47.6719 53.2969 47.5312 53.4375 47.5312L54.7031 47.1094C54.8438 47.1094 54.9844 47.1094 54.9844 47.25L57.7969 55.125ZM59.9062 45.4219L60.3281 46.6875C60.3281 46.8281 60.3281 46.9688 60.1875 46.9688L59.2031 47.3906L61.5937 53.8594C61.5937 54 61.5938 54.1406 61.4531 54.1406L60.1875 54.5625C60.0469 54.5625 59.9062 54.5625 59.9062 54.4219L57.6562 47.8125L56.6719 48.2344C56.5312 48.2344 56.3906 48.2344 56.3906 48.0938L55.9687 46.8281C55.9687 46.6875 55.9688 46.5469 56.1094 46.5469L59.625 45.2812C59.7656 45.2812 59.9062 45.2812 59.9062 45.4219ZM50.2031 70.7344L49.6406 70.875C48.6562 71.1563 47.6719 70.7344 47.25 69.75L45 63.2812C44.7187 62.2969 45.1406 61.3125 46.125 60.8906L46.6875 60.75C47.6719 60.4688 48.6563 60.8906 49.0781 61.875L51.4687 68.3437C51.75 69.1875 51.1875 70.3125 50.2031 70.7344ZM46.9688 62.2969C46.6875 62.4375 46.5469 62.5781 46.6875 62.8594L48.9375 69.1875C48.9375 69.3281 49.2187 69.4687 49.3594 69.3281H49.5C49.6406 69.3281 49.7813 69.0469 49.7813 68.9062L47.5312 62.5781C47.3906 62.2969 47.1094 62.2969 46.9688 62.2969ZM54.5625 59.7656L57.5156 67.6406C57.5156 67.7812 57.5156 67.9219 57.375 67.9219L56.5312 68.2031C56.3906 68.2031 56.25 68.2031 56.25 68.0625L53.4375 64.9688L54.7031 68.625C54.7031 68.7656 54.7031 68.9062 54.5625 68.9062L53.2969 69.3281C53.1563 69.3281 53.0156 69.3281 53.0156 69.1875L50.0625 61.3125C50.0625 61.1719 50.0625 61.0313 50.2031 61.0313L51.1875 60.75C51.3281 60.75 51.4687 60.75 51.4687 60.8906L54.4219 64.4062L53.0156 60.3281C53.0156 60.1875 53.0156 60.0469 53.1562 60.0469L54.4219 59.625C54.4219 59.625 54.5625 59.625 54.5625 59.7656ZM61.5937 64.8281L62.0156 66.0937C62.0156 66.2344 62.0156 66.375 61.875 66.375L58.9219 67.5C58.7813 67.5 58.6406 67.5 58.6406 67.3594L55.6875 59.4844C55.6875 59.3437 55.6875 59.2031 55.8281 59.2031L58.7812 58.0781C58.9219 58.0781 59.0625 58.0781 59.0625 58.2188L59.4844 59.4844C59.4844 59.625 59.4844 59.7656 59.3438 59.7656L57.7969 60.3281L58.3594 61.875L59.7656 61.3125C59.9062 61.3125 60.0469 61.3125 60.0469 61.4531L60.4688 62.7187C60.4688 62.8594 60.4688 63 60.3281 63L58.9219 63.5625L59.625 65.3906L61.1719 64.8281C61.4531 64.6875 61.5937 64.6875 61.5937 64.8281Z" fill="#89664C"/>
<g opacity="0.5">
<path d="M35.7187 77.0625L78.4687 41.2031C76.3594 38.6719 76.0781 35.4375 77.2031 32.625C73.8281 32.4844 70.875 30.375 69.6094 27.1406L17.1562 46.125C18.7031 50.4844 16.4531 55.2656 12.0938 56.9531L15.3281 65.9531L23.7656 76.0781C27.4219 72.9844 32.625 73.5469 35.7187 77.0625Z" fill="#947151"/>
<path opacity="0.5" d="M35.7187 77.0625L78.4687 41.2031C76.3594 38.6719 76.0781 35.4375 77.2031 32.625C73.8281 32.4844 70.875 30.375 69.6094 27.1406L17.1562 46.125C18.7031 50.4844 16.4531 55.2656 12.0938 56.9531L15.3281 65.9531L23.7656 76.0781C27.4219 72.9844 32.625 73.5469 35.7187 77.0625Z" fill="#947151"/>
</g>
<path d="M73.8281 22.6406L71.4375 19.6875C70.5938 20.3906 69.4688 20.25 68.7656 19.4062C68.0625 18.5625 68.2031 17.4375 69.0469 16.7344L66.6562 13.7812C65.8125 14.4844 64.6875 14.3438 63.9844 13.5C63.2812 12.6563 63.4219 11.5312 64.2656 10.8281L61.875 7.875C61.0312 8.57812 59.9062 8.4375 59.2031 7.59375C58.2187 7.03125 58.3594 5.90625 59.0625 5.20312L56.6719 2.25C55.8281 2.95312 54.7031 2.8125 54 2.10938C50.625 3.79688 46.4062 3.09375 43.7344 0L0.984375 35.8594C4.07812 39.5156 3.51562 44.8594 0 47.8125L19.125 70.7344C22.6406 67.7812 27.9844 68.2031 30.9375 71.7188L73.6875 35.8594C71.1562 32.7656 71.1562 28.4062 73.4062 25.3125C72.9844 24.4688 73.125 23.3438 73.8281 22.6406Z" fill="#FBBF67"/>
<path d="M66.375 32.9062L29.5313 63.8438C27.5625 65.5312 24.6094 65.25 22.9219 63.2812L7.87501 45.2813C6.18751 43.3125 6.46876 40.3594 8.43751 38.6719L45.2813 7.73438C47.25 6.04688 50.2031 6.32813 51.8906 8.29688L66.9375 26.2969C68.625 28.2656 68.3438 31.2188 66.375 32.9062ZM9.98439 40.5C9.00001 41.3438 8.85939 42.75 9.70314 43.7344L24.75 61.875C25.5938 62.8594 27 63 27.9844 62.1562L64.8281 31.2188C65.8125 30.375 65.9531 28.9688 65.1094 27.9844L50.0625 9.84375C49.2188 8.85938 47.8125 8.71875 46.8281 9.5625L9.98439 40.5Z" fill="#FF5555"/>
<path d="M30.7969 40.5L29.8125 41.3437C29.6719 41.4844 29.5312 41.3437 29.5312 41.3437L28.4063 40.2188L27.5625 40.7812L28.5469 42.0469V42.3281L27.5625 43.1719C27.4219 43.3125 27.4219 43.1719 27.2812 43.1719L21.7969 34.875V34.5938L23.3438 33.3281C23.4844 33.1875 23.625 33.1875 23.625 33.3281L30.7969 40.2188V40.5ZM27.1406 38.9531L24.3281 36L24.1875 36.1406L26.5781 39.375L27.1406 38.9531ZM30.375 31.6406L33.6094 35.5781C34.3125 36.4219 34.1719 37.5469 33.3281 38.25L31.6406 39.6562C31.5 39.7969 31.3594 39.6562 31.3594 39.6562L25.875 33.1875C25.7344 33.0469 25.875 32.9062 25.875 32.9062L27.5625 31.5C28.5469 30.7969 29.6719 30.7969 30.375 31.6406ZM29.1094 32.7656C28.9688 32.625 28.6875 32.625 28.5469 32.7656L28.125 33.0469L31.7813 37.4062L32.2031 37.125C32.3437 36.9844 32.3437 36.8438 32.2031 36.5625L29.1094 32.7656ZM34.5938 25.875L40.0781 32.3437C40.2188 32.4844 40.0781 32.625 40.0781 32.625L38.9531 33.4687C38.8125 33.6094 38.6719 33.4687 38.6719 33.4687L36.1406 30.5156L37.6875 33.8906C37.6875 34.0312 37.6875 34.0313 37.5469 34.0313L34.5938 31.9219L37.125 34.875C37.2656 35.0156 37.125 35.1562 37.125 35.1562L36 36C35.8594 36.1406 35.7187 36 35.7187 36L30.2344 29.5312C30.0938 29.3906 30.2344 29.25 30.2344 29.25L31.2188 28.4063C31.3594 28.2656 31.5 28.4063 31.5 28.4063L35.2969 31.0781L33.3281 26.8594V26.5781L34.3125 25.7344C34.4531 25.875 34.5938 25.875 34.5938 25.875ZM42.4688 30.375C42.6094 30.5156 42.4688 30.6562 42.4688 30.6562L41.4844 31.5C41.3438 31.6406 41.2031 31.5 41.2031 31.5L35.7187 25.0312C35.5781 24.8906 35.7187 24.75 35.7187 24.75L36.7031 23.9062C36.8438 23.7656 36.9844 23.9062 36.9844 23.9062L42.4688 30.375ZM41.0625 20.5312L41.9062 21.5156C42.0469 21.6562 41.9062 21.7969 41.9062 21.7969L41.0625 22.5L45.5625 27.8437C45.7031 27.9844 45.5625 28.125 45.5625 28.125L44.5781 28.9688H44.2969L39.7969 23.625L38.9531 24.3281C38.8125 24.4687 38.6719 24.3281 38.6719 24.3281L37.8281 23.3438C37.6875 23.2031 37.8281 23.0625 37.8281 23.0625L40.7812 20.6719C40.7812 20.5312 40.9219 20.5312 41.0625 20.5312ZM40.6406 47.6719L40.2188 48.0938C39.375 48.7969 38.25 48.6562 37.5469 47.8125L33.1875 42.6094C32.4844 41.7656 32.625 40.6406 33.4687 39.9375L33.8906 39.5156C34.7344 38.8125 35.8594 38.9531 36.5625 39.7969L40.7812 45C41.4844 45.8438 41.3438 46.9688 40.6406 47.6719ZM34.5938 40.9219C34.3125 41.0625 34.3125 41.3438 34.4531 41.4844L38.8125 46.5469C38.9531 46.6875 39.0938 46.6875 39.375 46.5469L39.5156 46.4062C39.6562 46.2656 39.6562 45.9844 39.5156 45.8437L35.1562 40.9219C35.0156 40.7812 34.7344 40.7812 34.5938 40.9219ZM40.9219 35.8594L46.4062 42.3281C46.5469 42.4688 46.4062 42.6094 46.4062 42.6094L45.7031 43.1719C45.5625 43.3125 45.4219 43.3125 45.4219 43.1719L41.7656 41.2031L44.2969 44.1562C44.4375 44.2969 44.2969 44.4375 44.2969 44.4375L43.3125 45.2812C43.1719 45.4219 43.0312 45.2812 43.0312 45.2812L37.5469 38.8125C37.4063 38.6719 37.5469 38.5312 37.5469 38.5312L38.25 37.9688C38.3906 37.8281 38.5312 37.8281 38.5312 37.9688L42.4688 40.2188L39.6563 36.9844C39.5156 36.8437 39.6563 36.7031 39.6563 36.7031L40.6406 35.8594H40.9219ZM49.2188 38.25L50.0625 39.2344C50.2031 39.375 50.0625 39.5156 50.0625 39.5156L47.6719 41.625C47.5313 41.7656 47.3906 41.625 47.3906 41.625L41.9062 35.1562C41.7656 35.0156 41.9062 34.875 41.9062 34.875L44.2969 32.7656C44.4375 32.625 44.5781 32.7656 44.5781 32.7656L45.4219 33.75C45.5625 33.8906 45.4219 34.0313 45.4219 34.0313L44.1562 35.1562L45.2813 36.4219L46.4062 35.4375C46.5469 35.2969 46.6875 35.4375 46.6875 35.4375L47.5312 36.4219C47.6719 36.5625 47.5312 36.7031 47.5312 36.7031L46.4062 37.6875L47.6719 39.2344L48.9375 38.1094C49.0781 38.1094 49.2188 38.1094 49.2188 38.25Z" fill="#89664C"/>
</g>
<defs>
<clipPath id="clip0_2_53">
<rect width="90" height="90" fill="white"/>
</clipPath>
</defs>
</svg>
