<svg width="64" height="62" viewBox="0 0 64 62" fill="none" xmlns="http://www.w3.org/2000/svg">
<rect width="60" height="60" rx="30" fill="#999CE6"/>
<path fill-rule="evenodd" clip-rule="evenodd" d="M37.6147 21.5942C37.6149 22.6388 37.4092 23.6731 37.0096 24.6383C36.6099 25.6034 36.0241 26.4803 35.2855 27.219C34.547 27.9577 33.6702 28.5437 32.7051 28.9436C31.7401 29.3434 30.7058 29.5493 29.6612 29.5494C27.5516 29.5496 25.5282 28.7117 24.0364 27.2202C22.5445 25.7286 21.7062 23.7054 21.706 21.5958C21.7059 20.5512 21.9115 19.5169 22.3112 18.5517C22.7108 17.5866 23.2966 16.7097 24.0352 15.971C25.5268 14.4791 27.5499 13.6408 29.6596 13.6406C31.7692 13.6404 33.7925 14.4783 35.2844 15.9698C36.7763 17.4614 37.6145 19.4846 37.6147 21.5942M29.6604 31.9828C18.2057 31.9828 13.75 39.2726 13.75 42.6639C13.75 46.0537 23.2351 46.9572 29.6604 46.9572C36.0856 46.9572 45.5707 46.0537 45.5707 42.6639C45.5707 39.2726 41.115 31.9828 29.6604 31.9828Z" fill="#B8C3D9"/>
<path d="M59.5313 44.905C60.1844 43.0019 57.675 41.9519 56.6437 43.0019C55.3031 40.9019 52.45 42.4113 52.45 42.4113C52.45 42.4113 50.9031 40.7706 48.9094 42.28C48.1875 41.591 46.0219 41.4269 46.0906 44.7738C43.6844 44.9706 43.7188 48.1863 44.8188 48.6785L60.7 49.991C62.2469 49.4003 62.8313 45.4628 59.5313 44.905Z" fill="#EDD8B4"/>
<path d="M49.4938 42.5745C49.6656 41.1636 46.8125 41.4261 47.2594 42.9683C46.1938 43.3292 46.95 44.8714 47.8094 44.4777C47.8438 45.6917 49.975 45.3964 49.6656 44.1167C50.4563 44.4449 51.1438 42.4105 49.4938 42.5745Z" fill="#FFF8D6"/>
<path d="M49.1156 43.0011C49.425 42.4761 48.3937 41.8855 48.325 42.8371C47.7062 42.3449 46.9156 43.723 48.0156 43.7558C47.5 44.5105 48.8406 44.9699 49.0812 44.248C50.1469 44.1496 49.8375 42.8371 49.1156 43.0011Z" fill="#EDD8B4"/>
<path d="M49.1501 43.5269C48.7376 43.4284 48.8063 43.3956 48.8407 43.1003C48.9094 42.5425 48.5657 42.5425 48.6001 43.0675C48.6344 43.3956 48.5657 43.5269 48.2219 43.2644C47.7751 42.969 47.7407 43.2972 48.1532 43.4284C48.5313 43.5925 48.3938 43.494 48.3938 43.9534C48.3938 44.3144 48.6001 44.4128 48.6344 43.9534C48.6688 43.494 48.6344 43.5269 49.0126 43.7565C49.3907 43.9534 49.5282 43.6253 49.1501 43.5269Z" fill="#C9AE81"/>
<path d="M48.1531 46.1844C48.9437 45.5282 47.0187 43.7563 46.2969 45.561C44.7844 44.675 44.0625 47.3329 45.5406 48.0875C46.2625 48.4813 50.4219 48.2188 48.1531 46.1844Z" fill="#FFF8D6"/>
<path d="M46.5719 46.1839C46.1594 45.5933 44.9219 46.348 45.9187 46.9386C43.7531 47.8902 49.8375 48.5792 47.9469 46.8402C48.4281 45.6589 46.8125 45.3308 46.5719 46.1839Z" fill="#EDD8B4"/>
<path d="M47.1906 46.4143C46.8468 46.7752 46.8468 46.7096 46.5375 46.5455C45.9531 46.1846 45.7468 46.7424 46.4 47.0049C46.7781 47.1361 46.7437 47.2018 47.2593 47.4643C47.6718 47.6611 47.8781 47.4643 47.3625 47.2018C46.8468 46.9393 46.8812 47.0049 47.3625 46.7096C47.8093 46.3486 47.5 46.0533 47.1906 46.4143Z" fill="#C9AE81"/>
<path d="M61.1125 47.1029C61.8343 46.5123 60.1156 44.9373 59.4625 46.5451C58.1218 45.7576 56.9531 48.5138 58.775 48.8091C58.6375 49.9904 60.5625 49.9904 60.5625 49.006C61.8 49.5638 62.5906 47.431 61.1125 47.1029Z" fill="#FFF8D6"/>
<path d="M59.7031 47.1032C59.325 46.5782 58.1906 47.2344 59.1188 47.7594C58.2938 48.1204 59.325 49.4657 59.9094 48.4485C60.4594 49.2688 61.5594 48.2188 60.975 47.661C61.3531 46.6438 59.9094 46.3485 59.7031 47.1032Z" fill="#EDD8B4"/>
<path d="M60.2531 47.3003C59.9437 47.6284 59.9437 47.5628 59.6687 47.3987C59.1531 47.0706 58.9468 47.3659 59.5312 47.5956C59.875 47.7268 59.9781 47.8253 59.5312 48.055C59.0156 48.3175 59.3593 48.5143 59.6687 48.219C60.0125 47.8909 59.8406 47.9893 60.2875 48.219C60.6656 48.3831 60.8375 48.219 60.3906 47.9893C59.9437 47.7597 59.9437 47.7925 60.3906 47.53C60.8031 47.2675 60.5281 46.9722 60.2531 47.3003Z" fill="#C9AE81"/>
<path d="M54.3062 43.2966C55.0625 42.6731 53.2406 41.0325 52.5875 42.7059C51.1781 41.8856 49.975 44.7403 51.8656 45.0684C51.7281 46.2825 53.7219 46.3153 53.7562 45.2653C55.0281 45.8559 55.8187 43.6247 54.3062 43.2966Z" fill="#FFF8D6"/>
<path d="M52.8282 43.2965C52.4501 42.7387 51.2813 43.4277 52.2094 43.9855C51.3501 44.3465 52.4157 45.7574 53.0344 44.7074C53.5844 45.5605 54.7532 44.4777 54.1344 43.8871C54.5813 42.8043 53.0344 42.509 52.8282 43.2965Z" fill="#EDD8B4"/>
<path d="M53.3781 43.4937C53.0344 43.8547 53.0687 43.789 52.7594 43.625C52.2094 43.2968 52.0031 43.5922 52.6219 43.8218C52.9656 43.9531 53.0687 44.0843 52.6562 44.2812C52.1062 44.5765 52.45 44.7734 52.7937 44.4453C53.1375 44.1172 52.9656 44.2156 53.4469 44.4453C53.825 44.6422 54.0312 44.4453 53.55 44.2156C53.0687 43.9531 53.1031 44.0187 53.55 43.7562C53.9625 43.4609 53.6875 43.1984 53.3781 43.4937Z" fill="#C9AE81"/>
<path d="M51.4875 46.2824C51.6937 45.3308 49.0812 44.9699 49.6656 46.8074C47.9469 46.9386 48.6687 49.2355 50.6625 49.2355C53.4812 49.2027 52.9656 45.6589 51.4875 46.2824Z" fill="#FFF8D6"/>
<path d="M49.975 47.1683C49.425 49.7605 53.3781 48.8089 51.7281 46.9058C51.3843 45.7246 50.1812 46.3152 49.975 47.1683Z" fill="#EDD8B4"/>
<path d="M50.8344 46.9723C50.8 47.4645 50.4219 47.2348 50.1469 47.4645C49.3563 48.1207 51.4875 48.7442 51.8312 47.5629C51.9 47.2676 50.9375 47.5957 51.1094 47.1036C51.3156 46.6114 50.9031 46.5457 50.8344 46.9723Z" fill="#C9AE81"/>
<path d="M57.5719 44.0517C57.7782 43.1002 55.2 42.772 55.7844 44.5767C54.1 44.708 54.9938 47.7595 56.7469 46.9392C57.4344 48.022 59.0844 46.9064 58.4313 46.0533C59.8407 45.758 59.05 43.4611 57.5719 44.0517Z" fill="#FFF8D6"/>
<path d="M56.3688 44.9045C55.6813 44.6748 55.2 45.9217 56.3344 45.8232C55.8875 46.6107 57.675 47.1686 57.4688 45.9545C58.5 46.3482 58.7406 44.7732 57.8469 44.6748C57.4688 43.4936 56.025 44.117 56.3688 44.9045Z" fill="#EDD8B4"/>
<path d="M56.9874 44.7409C56.9531 45.2331 56.9187 45.1675 56.5749 45.1675C55.9218 45.2003 55.9562 45.5612 56.5749 45.43C56.9531 45.3315 57.1249 45.3644 56.8843 45.8237C56.6093 46.3815 57.0562 46.3487 57.1249 45.8565C57.1937 45.3644 57.1249 45.5612 57.6406 45.4956C58.0874 45.43 58.1218 45.1675 57.5718 45.2331C57.0218 45.2987 57.0906 45.3315 57.2624 44.8394C57.4343 44.38 57.0218 44.3144 56.9874 44.7409Z" fill="#C9AE81"/>
<path d="M44.6812 48.3498L47.3969 61.3436H49.6312L47.8094 48.3498C47.6719 46.5123 44.4062 46.5123 44.6812 48.3498Z" fill="#ED4C5C"/>
<path d="M47.8094 48.3498L49.6313 61.3436H51.8656L50.9375 48.3498C50.9375 46.5123 47.6719 46.5123 47.8094 48.3498Z" fill="#F9F9F9"/>
<path d="M50.9375 48.3498L51.8656 61.3436H54.1V48.3498C54.2031 46.5123 50.9375 46.5123 50.9375 48.3498Z" fill="#ED4C5C"/>
<path d="M54.1 48.3498V61.3436H56.3L57.2281 48.3498C57.4344 46.5123 54.2031 46.5123 54.1 48.3498Z" fill="#F9F9F9"/>
<path d="M56.3 61.3435L57.7094 60.4248L58.3625 48.7763C58.5688 47.3654 57.3313 46.8404 57.1938 48.3498L56.3 61.3435Z" fill="#C94747"/>
<path d="M58.9125 59.6379L59.5656 49.2035C59.8063 47.891 58.6031 47.366 58.3969 48.7769L57.7438 60.4254L58.9125 59.6379Z" fill="#E8E8E8"/>
<path d="M59.9093 59.0138L60.7 49.6622C60.975 48.4481 59.8062 47.9231 59.5656 49.2356L58.9125 59.67L59.9093 59.0138Z" fill="#C94747"/>
<path d="M60.5625 58.5878L61.3532 50.0565C61.4219 49.105 60.8032 48.7768 60.7 49.6628L59.9094 59.0143L60.5625 58.5878Z" fill="#E8E8E8"/>
</svg>
